<?xml version="1.0" standalone="no"?>
<!DOCTYPE svg PUBLIC "-//W3C//DTD SVG 20010904//EN"
 "http://www.w3.org/TR/2001/REC-SVG-20010904/DTD/svg10.dtd">
<svg version="1.0" xmlns="http://www.w3.org/2000/svg"
 width="1000.000000pt" height="1000.000000pt" viewBox="0 0 1000.000000 1000.000000"
 preserveAspectRatio="xMidYMid meet">
<metadata>
Created by potrace 1.14, written by Peter Selinger 2001-2017
</metadata>
<g transform="translate(0.000000,1000.000000) scale(0.100000,-0.100000)"
fill="#000000" stroke="none">
<path d="M1500 9975 c-41 -7 -91 -15 -110 -18 -40 -7 -205 -53 -235 -66 -11
-5 -56 -24 -100 -42 -44 -18 -84 -36 -90 -39 -5 -4 -37 -22 -70 -40 -56 -31
-202 -128 -235 -157 -8 -7 -37 -32 -64 -55 -84 -73 -204 -202 -233 -250 -10
-16 -21 -28 -25 -28 -4 0 -8 -5 -8 -10 0 -6 -21 -40 -46 -76 -78 -111 -209
-410 -220 -499 -1 -11 -3 -20 -4 -20 -1 0 -3 -7 -5 -15 -2 -8 -6 -26 -9 -40
-3 -14 -7 -34 -9 -45 -3 -11 -9 -47 -13 -80 -11 -75 -12 -6929 -1 -7004 4 -30
10 -64 13 -75 3 -12 7 -34 9 -51 2 -16 4 -30 5 -30 1 0 3 -7 5 -15 25 -107 93
-294 135 -370 10 -19 24 -45 29 -58 12 -26 118 -189 137 -212 8 -8 40 -46 72
-85 102 -121 188 -196 377 -333 39 -28 281 -150 310 -157 5 -1 23 -7 40 -14
31 -13 157 -50 190 -57 192 -36 44 -34 3695 -32 1928 2 3514 6 3525 9 11 4 40
10 65 15 51 9 59 11 63 14 1 1 9 3 18 5 13 2 90 25 139 40 3 1 14 5 25 10 181
73 306 141 435 236 89 66 275 246 326 314 16 22 31 42 34 45 3 3 10 12 15 21
6 8 29 44 53 80 104 157 194 379 237 587 l25 117 -1 3500 c-1 3334 -2 3504
-19 3585 -10 47 -21 95 -24 108 -3 12 -8 32 -11 44 -37 169 -186 452 -332 631
-65 79 -261 267 -279 267 -7 0 -14 3 -16 8 -4 10 -84 72 -94 72 -4 0 -15 6
-23 14 -13 11 -66 42 -151 87 -76 41 -315 127 -375 135 -32 5 -45 7 -85 17
-14 3 -43 10 -65 14 -22 4 -1595 8 -3495 9 -2770 2 -3470 -1 -3530 -11z"/>
</g>
</svg>
