<?xml version="1.0" encoding="UTF-8" standalone="no"?>
<svg
   xmlns:dc="http://purl.org/dc/elements/1.1/"
   xmlns:cc="http://creativecommons.org/ns#"
   xmlns:rdf="http://www.w3.org/1999/02/22-rdf-syntax-ns#"
   xmlns:svg="http://www.w3.org/2000/svg"
   xmlns="http://www.w3.org/2000/svg"
   viewBox="0 0 3178.6667 2245.3333"
   height="2245.3333"
   width="3178.6667"
   xml:space="preserve"
   id="svg2"
   version="1.1"><metadata
     id="metadata8"><rdf:RDF><cc:Work
         rdf:about=""><dc:format>image/svg+xml</dc:format><dc:type
           rdf:resource="http://purl.org/dc/dcmitype/StillImage" /></cc:Work></rdf:RDF></metadata><defs
     id="defs6"><clipPath
       id="clipPath146"
       clipPathUnits="userSpaceOnUse"><path
         id="path144"
         d="M 17526.2,10441 H 19008 v 1983.05 h -1481.8 z" /></clipPath><clipPath
       id="clipPath308"
       clipPathUnits="userSpaceOnUse"><path
         id="path306"
         d="m 8125.49,8401.02 c -139.8,0 -474.32,41.93 -740.64,393.05 118.32,-110.71 303.93,-218.89 587.95,-239.51 0,0 15.73,-0.92 42.75,-0.92 29.47,0 72.36,1.09 122.95,5.62 v -158.12 c -4.12,-0.08 -8.47,-0.12 -13.01,-0.12" /></clipPath><clipPath
       id="clipPath348"
       clipPathUnits="userSpaceOnUse"><path
         id="path346"
         d="m 8889.81,10412.7 h 1481.89 v 1983.05 H 8889.81 Z" /></clipPath></defs><g
     transform="matrix(1.3333333,0,0,-1.3333333,0,2245.3333)"
     id="g10"><g
       transform="scale(0.1)"
       id="g12"><g
         transform="scale(1.27639)"
         id="g14"><path
           id="path16"
           style="fill:#665091;fill-opacity:1;fill-rule:nonzero;stroke:none"
           d="m 15695.7,4294.05 c -228.2,-524.29 -569.9,-1101.3 -1136.2,-1180.04 -430.1,-60.01 -832.2,194.77 -1211.4,406.22 -379.1,211.77 -849.8,389.85 -1232.9,185.45 -593.2,-316.13 -491.1,-1248.13 -971.1,-1718.75 -425,-417.12 -1121.2,-315.58 -1693.87,-151.92 -401.68,114.7 -819.03,258.86 -1095.67,572.09 -314.01,355.61 -404.42,884.99 -771.17,1186.07 -456.39,374.89 -1147.83,239.11 -1667.54,-41.75 -341.66,-184.9 -661.54,-425.73 -1038.17,-521.24 -654.44,-165.62 -1381.08,175.81 -1740.47,747.19 -359.15,571.37 -369.79,1323.8 -102.83,1943.83 188.68,437.91 503.25,811.23 882.15,1103.75 157.27,121.58 325.7,229.22 500.72,321.66 227.43,120.05 470.82,219.59 660.53,393.08 189.45,173.49 316.33,447.77 229.72,689.91 -23.56,66.36 -61.81,126.63 -97.02,188.18 0,0 -89.66,118.79 -102.82,276.07 0,0 -13.43,55.72 -13.43,148.92 0,299.37 137.78,986.24 1297.26,1461.93 283.91,182.3 632.93,329.5 1052.1,379.3 0,0 1001.93,284 1408.47,-512.8 87.35,-103.6 140.55,-234.04 214.98,-348.52 84.61,-130.18 221.4,-249.98 375.59,-232.25 78.03,8.86 147.68,51.92 209.73,99.79 309.23,237.56 491.84,605.08 777.54,870.78 580,539.4 1530.3,555.1 2210.3,148.9 680.1,-406.3 1101.7,-1160 1249.4,-1938.29 36.8,-192.5 61.5,-396.12 175.3,-555.94 160.3,-225.67 451.3,-304.94 708.1,-408.28 381,-153.23 734,-400.16 980.4,-724.61 88.2,-115.74 162.6,-241.36 220.1,-376.1 326.5,-766.66 54.7,-1648.52 -277.8,-2412.63" /></g><g
         transform="scale(1.37813)"
         id="g18"><path
           id="path20"
           style="fill:#e7bfad;fill-opacity:1;fill-rule:nonzero;stroke:none"
           d="m 15191.4,7454.21 c 510.3,-536.43 1108.6,-1165.23 1069.8,-2015.16 -35,-766.7 -577.8,-1481.22 -1219.1,-1766.39 -457.8,-203.54 -913.1,-164.86 -1564.8,-109.57 -923.9,78.52 -1060.2,304.55 -1426,171.76 -666,-241.63 -444.8,-1073.85 -1123.1,-1591.87 -816.9,-623.75 -2413.68,-391.55 -3226.38,389.22 -492.98,473.47 -401.92,776.2 -892.01,1098.52 -527.86,347.14 -1327.58,221.39 -1928.68,-38.75 -395.16,-171.25 -765.14,-394.3 -1200.74,-482.75 -479.3,-97.31 -1468,-52.68 -2013.03,692.02 -518.76,708.79 -362.95,1657.46 15.04,2210.01 387.68,566.72 787.22,392.46 1465.45,910.52 1240.83,947.81 732.52,2164.32 1868.27,2945.65 608.51,418.58 1517.13,594.08 2270.21,369.88 955.28,-284.43 1280.5,-1099.07 1916.44,-959.7 405.26,88.83 349.67,397.07 899.33,806.5 670.8,499.6 1769.9,514.2 2556.4,137.9 199.3,-95.3 379.3,-211.3 540,-343.06 538.5,-441.8 526.8,-895.87 905,-1452.14 354.1,-520.83 516.2,-371.62 1087.9,-972.59" /></g><g
         transform="scale(1.22646)"
         id="g22"><path
           id="path24"
           style="fill:#ce91ce;fill-opacity:1;fill-rule:nonzero;stroke:none"
           d="m 16083.9,1171.99 h -5205 c -119.4,0 -216.1,96.7 -216.1,216.07 v 8971.34 c 0,119.3 96.7,216 216.1,216 h 5205 c 119.4,0 216.1,-96.7 216.1,-216 V 1388.06 c 0,-119.37 -96.7,-216.07 -216.1,-216.07" /></g><g
         transform="scale(1.21671)"
         id="g26"><path
           id="path28"
           style="fill:#cbb7cb;fill-opacity:1;fill-rule:nonzero;stroke:none"
           d="m 16082.2,1295.71 h -5246.8 c -120.3,0 -217.8,97.47 -217.8,217.8 v 9043.19 c 0,120.3 97.5,217.8 217.8,217.8 h 5246.8 c 120.2,0 217.8,-97.5 217.8,-217.8 V 1513.51 c 0,-120.33 -97.6,-217.8 -217.8,-217.8" /></g><g
         transform="scale(1.1771)"
         id="g30"><path
           id="path32"
           style="fill:#f3eee4;fill-opacity:1;fill-rule:nonzero;stroke:none"
           d="m 16182.6,2310.43 h -4778 c -64.9,0 -117.4,52.5 -117.4,117.41 v 8127.06 c 0,64.8 52.5,117.4 117.4,117.4 h 4778 c 64.8,0 117.4,-52.6 117.4,-117.4 V 2427.84 c 0,-64.91 -52.6,-117.41 -117.4,-117.41" /></g><g
         transform="scale(1.18563)"
         id="g34"><path
           id="path36"
           style="fill:#aac1bc;fill-opacity:1;fill-rule:nonzero;stroke:none"
           d="m 16183.4,2394.34 h -4743.6 c -64.3,0 -116.6,52.12 -116.6,116.56 v 8068.6 c 0,64.3 52.3,116.5 116.6,116.5 h 4743.6 c 64.4,0 116.6,-52.2 116.6,-116.5 V 2510.9 c 0,-64.44 -52.2,-116.56 -116.6,-116.56" /></g><g
         transform="scale(1.07189)"
         id="g38"><path
           id="path40"
           style="fill:#1e192d;fill-opacity:1;fill-rule:nonzero;stroke:none"
           d="m 16300,2833.03 c -38.9,747.66 -147.9,1288.01 -147.9,1288.01 l -1894.6,376.62 -97.6,-316.73 c -173.4,-436.98 -293.6,-893.74 -374.8,-1347.9 H 16300" /></g><g
         transform="scale(1.1106)"
         id="g42"><path
           id="path44"
           style="fill:#3c2415;fill-opacity:1;fill-rule:nonzero;stroke:none"
           d="m 16193,8120.52 c -58.6,-183.14 -269.2,-300.45 -287.4,-491.89 -12.2,-128.84 68.3,-245.55 112.2,-367.28 71.3,-197.54 43,-428.33 -74.1,-602.7 -35.1,100.09 -72.5,203.9 -148,278.38 -75.6,74.46 -201.2,109.6 -289.4,50.81 -0.6,-90.3 -1.2,-180.59 -1.8,-270.9 -45.2,81.69 -168.2,88.33 -246.8,37.98 -78.6,-50.35 -123.4,-138.31 -164.5,-222.12 -54,137.45 227.1,234.3 180.8,374.57 -8.7,26.04 -27.8,46.85 -45.1,68.19 -285.9,354.34 -49.5,910.09 -245.9,1320.79 -105.4,220.21 -345.4,374.49 -589.1,359.8 -243.6,-14.7 -470.1,-209.52 -503.3,-451.37 -5.6,-40.82 -5.6,-84.47 14,-120.69 23.4,-43.09 69.6,-67.56 111.3,-93.26 333.2,-205.31 494.5,-652.15 369.5,-1022.93 -112.5,53.56 -225,107.11 -337.4,160.67 -48.6,23.17 -98.3,46.98 -136.8,84.67 -50.5,49.43 -77.1,117.8 -100.5,184.49 -104,296.29 -175.1,609.78 -151.7,922.92 23.4,313.15 150,627.32 388.6,831.46 21.1,18.03 103.7,80.11 226.6,129.34 473,189.67 1066.6,-18.74 1447,-342.52 98.4,-83.84 578.8,-484.55 471.8,-818.41" /></g><path
         id="path46"
         style="fill:#fcd772;fill-opacity:1;fill-rule:nonzero;stroke:none"
         d="m 13613.3,8501.06 c 0,0 66.1,-80.5 188.4,-197.55 28.1,-27.42 75.2,-45.36 93.9,-87.19 64.7,-146.94 149.4,-176.81 249.6,-305.83 l 1163.2,-1034.2 0.3,0.35 c 21.1,14.77 690.8,492.85 818.7,835.94 -275.2,42.53 -265.4,150.46 -265.4,150.46 h -0.3 l -950.2,628.18 -244,141.67 347.7,225.33 c 0,0 264,24.6 211.6,234.82 l 104.4,67.49 c 0,0 45,36.21 -37.6,185.26 0,0 -67.5,151.86 -182.1,153.97 0,0 -36.9,10.89 -133.2,-44.29 0,0 -141.7,131.46 -259.8,13 0,0 -78.7,-106.86 -209.1,-163.11 0,0 -406.4,-211.61 -570.9,-308.64 -26,-15.11 -46.1,-27.42 -57.3,-35.86 -85.5,-62.21 -488,-260.48 -267.9,-459.8" /><path
         id="path48"
         style="fill:#fcd772;fill-opacity:1;fill-rule:nonzero;stroke:none"
         d="m 16013.4,7941.15 c 0,0 -690,128.19 -792.9,-1357.45 -82.3,-1190.6 792.9,1357.45 792.9,1357.45" /><g
         transform="scale(1.06217)"
         id="g50"><path
           id="path52"
           style="fill:#1e192d;fill-opacity:1;fill-rule:nonzero;stroke:none"
           d="m 16300,4201.32 v -284.04 c 0,0 -721.9,-270.3 -1883.3,33.14 v 206.84 l 1883.3,44.06" /></g><g
         transform="scale(1.06483)"
         id="g54"><path
           id="path56"
           style="fill:#f9bcaf;fill-opacity:1;fill-rule:nonzero;stroke:none"
           d="m 14352.2,8462.88 c 12.2,-102.68 42,-210.29 99.3,-312.64 27.7,-49.18 61.8,-97.05 103.7,-142.61 206.7,-224.48 634.5,-203.35 634.5,-203.35 565.5,41.27 705.4,462.17 705.4,462.17 219,-144.58 313.7,62.07 313.7,62.07 91.2,169.02 -49.5,218.54 -49.5,218.54 -103,36.97 -214.6,-86.49 -214.6,-86.49 -37,49.52 -49.6,144.26 -49.6,144.26 -58,-108.61 -35.9,-177.28 -33.2,-185.2 -68.4,94.09 -87.5,264.11 -90.8,396.81 -2.6,106.64 4.6,188.84 4.6,188.84 -701.5,36.96 -837.9,515.65 -837.9,515.65 -255.5,-346.63 -528.1,-536.45 -528.1,-536.45 0,0 -16.9,-44.9 -33.4,-117.85 -22.1,-97.07 -43.6,-244.63 -24.1,-403.75" /></g><g
         transform="scale(1.03058)"
         id="g58"><path
           id="path60"
           style="fill:#f49a90;fill-opacity:1;fill-rule:nonzero;stroke:none"
           d="m 14854.1,9158.88 c 61.3,-18.08 125.9,-15.34 182.4,18.07 28.8,17.06 54.3,40.94 86.7,49.13 103.7,26.26 180.8,-117 287.6,-120.42 102.7,-3.4 173.2,121.1 275.6,123.15 137.8,2.72 200.2,-207.39 337.6,-214.9 37.9,-2.05 74.5,12.62 109.5,26.95 53.9,22.17 107.8,44 161.7,66.17 -2.7,110.18 4.8,195.11 4.8,195.11 -724.8,38.2 -865.7,532.79 -865.7,532.79 -264,-358.15 -545.7,-554.28 -545.7,-554.28 0,0 -17.5,-46.39 -34.5,-121.77" /></g><g
         transform="scale(1.02734)"
         id="g62"><path
           id="path64"
           style="fill:#f9bcaf;fill-opacity:1;fill-rule:nonzero;stroke:none"
           d="m 15587.3,8093.55 v -363.72 c 313.4,-171.1 712.7,0 712.7,0 v 585.79 c -111.8,-104.7 -287.4,-207.01 -556,-226.51 0,0 -65,-3.76 -156.7,4.44" /></g><g
         transform="scale(1.02734)"
         id="g66"><path
           id="path68"
           style="fill:#1e192d;fill-opacity:1;fill-rule:nonzero;stroke:none"
           d="m 15587.3,8093.55 v -149.52 c 123.8,-2.39 452.7,28.74 712.7,371.59 -111.8,-104.7 -287.4,-207.01 -556,-226.51 0,0 -65,-3.76 -156.7,4.44" /></g><g
         transform="scale(1.12756)"
         id="g70"><path
           id="path72"
           style="fill:#fcd772;fill-opacity:1;fill-rule:nonzero;stroke:none"
           d="m 13460.9,4151.07 c -42.2,-155.82 96.6,-218.17 96.6,-218.17 849.6,-296.21 1680.4,-93.56 1680.4,-93.56 254.1,54.54 143.4,187.04 143.4,187.04 413.1,155.91 194.8,506.67 194.8,506.67 -29,47 -42.7,89.13 -49.3,120.61 -7.4,36.45 -5.2,58.62 -5.2,58.62 l -7.8,265 c 55.4,-39.91 108.8,-71.13 159.3,-95.43 204.5,-98.8 355.1,-83.81 355.1,-83.81 271.8,37.07 264.7,348.18 250,475.72 -4,33.34 -8.4,54.27 -8.4,54.27 -23.4,342.87 -639.1,1348.33 -639.1,1348.33 -89.8,155.88 -244.4,244.73 -376.9,294.29 -132.5,49.58 -242.6,60.49 -242.6,60.49 -16.2,-105.37 -108.1,-57.69 -108.1,-57.69 -103.9,-62.35 -174.8,-52.08 -174.8,-52.08 -175.2,-9.98 -381.3,-10.78 -472.3,3.26 -244.1,37.71 -188.5,48.84 -188.5,48.84 h -0.3 c -215.4,-114.73 -413.1,-643.78 -490.4,-874.8 l -0.3,-0.31 c -22.2,-66.42 -34.6,-107.84 -34.6,-107.84 -155.9,-459.84 -187.1,-1387.32 -187.1,-1387.32 -93.5,-311.83 106.1,-452.13 106.1,-452.13" /></g><g
         transform="scale(1.07408)"
         id="g74"><path
           id="path76"
           style="fill:#99afab;fill-opacity:1;fill-rule:nonzero;stroke:none"
           d="m 16300,4885.49 v 0 c -4.9,24.2 -5.9,42.36 -5.9,52.41 0,-10.05 1,-28.21 5.9,-52.41 m -5.5,61.54 -8.2,278.09 v 0 l 8.2,-278.09 v 0" /></g><g
         transform="scale(1.0842)"
         id="g78"><path
           id="path80"
           style="fill:#e3c368;fill-opacity:1;fill-rule:nonzero;stroke:none"
           d="m 16147.9,4839.9 c -111.9,136.6 -843.3,1139.28 -877,1341.64 v 0 c 0,0 805.1,-983.4 1029.1,-1104.32 -52.5,25.27 -108,57.74 -165.7,99.24 v -0.09 0 l 8.2,-275.51 c -0.1,-0.27 -0.4,-3.41 -0.4,-9.04 0,-9.95 0.9,-27.94 5.8,-51.92" /></g><g
         transform="scale(1.04974)"
         id="g82"><path
           id="path84"
           style="fill:#e3c368;fill-opacity:1;fill-rule:nonzero;stroke:none"
           d="m 15642.5,4253.23 c -314.4,0 -699.9,34.39 -1050.9,161.57 -8.7,3.14 -13.3,12.76 -10.1,21.43 2.5,6.77 8.8,11.05 15.7,11.05 1.9,0 3.8,-0.38 5.7,-1.04 347.1,-125.66 728.2,-159.66 1039.4,-159.66 363.7,0 631.7,46.48 636.7,47.44 1,0.19 1.9,0.28 3,0.28 7.9,0 15,-5.71 16.4,-13.81 1.6,-9.15 -4.4,-17.82 -13.5,-19.43 -5,-0.86 -275.1,-47.83 -642.4,-47.83" /></g><path
         id="path86"
         style="fill:#ffffff;fill-opacity:1;fill-rule:nonzero;stroke:none"
         d="m 15746.4,9731.01 c 0,-22.97 16.1,-41.58 36,-41.58 19.9,0 36.1,18.61 36.1,41.58 0,22.97 -36.1,83.29 -36.1,83.29 0,0 -36,-60.32 -36,-83.29" /><path
         id="path88"
         style="fill:#000000;fill-opacity:1;fill-rule:nonzero;stroke:none"
         d="m 15635,9692.37 c -11.9,-19.42 -25,-39.73 -39,-56.95 -14.2,-17.45 -29.2,-33.01 -45.5,-46.32 -16.4,-13.12 -33.2,-25.16 -52,-34.15 -19.3,-8.9 -36.7,-16.3 -53.2,-49.2 l -1.2,-2.38 c -5.7,-11.43 -1.6,-25.23 9,-31.9 32.1,-20.05 63,-12.61 87.9,3.07 26.2,13.5 49.7,32.61 69.1,54.59 19.7,21.84 35.1,47.05 45,73.74 10.3,26.81 15.8,53.83 14.5,83.6 -0.4,9.85 -8.8,17.48 -18.6,17.04 -6.1,-0.27 -11.4,-3.6 -14.4,-8.44 l -1.6,-2.7" /><g
         transform="scale(1.03093)"
         id="g90"><path
           id="path92"
           style="fill:#f2a89c;fill-opacity:1;fill-rule:nonzero;stroke:none"
           d="m 16300,6748.11 c 0,0 -120.8,98.04 -125,200.33 0,0 17,132.14 -127.9,306.88 0,0 -85.2,120.11 -255.8,209.24 0,0 -12.7,-42.99 47,-123.98 l 68.2,-115.07 c 0,0 -202,206.85 -350.4,273.9 0,0 -46.1,-5.39 17.9,-90.63 0,0 -89.5,81.74 -110.8,55.78 0,0 24.3,-64.31 69.7,-141.04 0,0 -142.2,81 -31.4,-98.01 0,0 -154.3,96.91 20.9,-145.48 0,0 230.6,-349.03 537.5,-579.12 0,0 126.4,-8.54 240.1,247.2" /></g><path
         id="path94"
         style="fill:#e3c368;fill-opacity:1;fill-rule:nonzero;stroke:none"
         d="m 16055.7,7637.95 c 0,0 -5.1,4.7 -13.3,11.53 0.6,0.63 1.2,1.22 1.8,1.78 0.4,0.36 0.9,0.7 1.3,1.02 3.1,-4.52 6.5,-9.29 10.2,-14.33" /><g
         transform="scale(1.00013)"
         id="g96"><path
           id="path98"
           style="fill:#da988e;fill-opacity:1;fill-rule:nonzero;stroke:none"
           d="m 16280.6,7372.27 c -4.7,0 -9.4,1.9 -12.9,5.55 -1.7,1.81 -170.8,182.16 -227.5,247.59 -5.8,6.72 -5.6,16.53 0,23.04 8.2,-6.83 13.3,-11.53 13.3,-11.53 -3.7,5.04 -7.1,9.81 -10.2,14.33 3,2.16 6.6,3.23 10.1,3.23 5,0 9.9,-2.04 13.4,-6.02 56.3,-64.92 224.9,-244.77 226.6,-246.59 6.6,-7.09 6.3,-18.21 -0.8,-24.85 -3.4,-3.18 -7.7,-4.75 -12,-4.75" /></g><path
         id="path100"
         style="fill:#e3c368;fill-opacity:1;fill-rule:nonzero;stroke:none"
         d="m 16013.4,7550.06 c 0,0 -6.5,3.71 -15.8,7.84 1.5,2.99 3.9,5.59 6.9,7.4 2.9,-5.02 5.8,-10.1 8.9,-15.24" /><path
         id="path102"
         style="fill:#da988e;fill-opacity:1;fill-rule:nonzero;stroke:none"
         d="m 16209.5,7299.6 c -4.7,0 -9.5,1.95 -12.9,5.69 -7,7.56 -170.5,185.77 -198.6,236.22 -2.9,5.28 -2.8,11.38 -0.4,16.39 9.3,-4.13 15.8,-7.84 15.8,-7.84 -3.1,5.14 -6,10.22 -8.9,15.24 0.1,0.05 0.2,0.09 0.3,0.14 2.7,1.5 5.7,2.21 8.6,2.21 6.1,0 12.1,-3.25 15.4,-9.04 21.6,-38.9 147.1,-178.89 193.7,-229.53 6.6,-7.14 6.1,-18.27 -1,-24.82 -3.5,-3.12 -7.7,-4.66 -12,-4.66" /><path
         id="path104"
         style="fill:#e3c368;fill-opacity:1;fill-rule:nonzero;stroke:none"
         d="m 15981,7449.01 c 0,0 -6.5,4.08 -15.4,8.54 1.5,2.61 3.6,4.88 6.4,6.51 2.8,-4.8 5.8,-9.83 9,-15.05" /><path
         id="path106"
         style="fill:#da988e;fill-opacity:1;fill-rule:nonzero;stroke:none"
         d="m 16127.5,7246.87 c -4.9,0 -9.8,2.03 -13.3,6.06 -4.9,5.65 -121.5,139.73 -148.5,187.43 -3.1,5.5 -2.9,12.01 -0.1,17.19 8.9,-4.46 15.4,-8.54 15.4,-8.54 -3.2,5.22 -6.2,10.25 -9,15.05 0.1,0.08 0.2,0.15 0.3,0.22 2.8,1.58 5.8,2.33 8.8,2.33 6.1,0 12,-3.24 15.2,-8.98 25.2,-44.58 143.2,-180.24 144.5,-181.64 6.3,-7.32 5.6,-18.4 -1.7,-24.78 -3.4,-2.89 -7.5,-4.34 -11.6,-4.34" /><path
         id="path108"
         style="fill:#f2a89c;fill-opacity:1;fill-rule:nonzero;stroke:none"
         d="m 15036.7,9476.25 c 0,0 148.2,61.26 182.6,161.06 0,0 22.1,135.56 216.7,265.49 0,0 119.7,93.53 314.4,131.3 0,0 -0.1,-46.21 -82.9,-108.64 l -101.3,-93.58 c 0,0 260.5,144.83 426.8,167.37 0,0 44,-18.91 -44.3,-84.28 0,0 112.5,54.36 125.9,22.45 0,0 -43,-56.35 -110.5,-118.78 0,0 164.4,38.1 2.1,-106.1 0,0 181.1,50.25 -63.4,-137.57 0,0 -330.7,-276.83 -701.7,-413.75 0,0 -127.4,28.89 -164.4,315.03" /><path
         id="path110"
         style="fill:#dc8c83;fill-opacity:1;fill-rule:nonzero;stroke:none"
         d="m 15948.7,9914.97 c 5,3.73 9.6,7.32 13.8,10.75 0.4,-0.41 0.7,-0.85 1,-1.3 0.4,-0.72 0.8,-1.46 1.2,-2.22 -9.8,-4.21 -16,-7.23 -16,-7.23" /><path
         id="path112"
         style="fill:#da988e;fill-opacity:1;fill-rule:nonzero;stroke:none"
         d="m 15660.5,9725.51 c -6.1,0 -11.9,3.12 -15.2,8.72 -4.9,8.42 -2.1,19.18 6.3,24.06 2.2,1.22 215.2,125.39 287.6,171.51 2.9,1.84 6.1,2.72 9.3,2.72 5.3,0 10.6,-2.39 14,-6.8 -4.2,-3.43 -8.8,-7.02 -13.8,-10.75 0,0 6.2,3.02 16,7.23 3.5,-7.83 0.8,-17.27 -6.7,-22.06 -72.9,-46.49 -286.5,-170.97 -288.6,-172.23 -2.8,-1.63 -5.9,-2.4 -8.9,-2.4" /><path
         id="path114"
         style="fill:#dc8c83;fill-opacity:1;fill-rule:nonzero;stroke:none"
         d="m 15964.1,9818.64 c 4.4,4.04 8.7,8.06 12.8,12.04 2.5,-2.6 4,-5.76 4.5,-9.03 -10,-1.32 -17.3,-3.01 -17.3,-3.01" /><path
         id="path116"
         style="fill:#da988e;fill-opacity:1;fill-rule:nonzero;stroke:none"
         d="m 15709.6,9633.94 c -6,0 -11.8,3.07 -15.1,8.59 -5,8.32 -2.3,19.13 6.1,24.11 59.1,35.21 219.4,133.49 251.2,164.59 3.5,3.36 8,5.05 12.4,5.05 4.6,0 9.1,-1.76 12.5,-5.32 0.1,-0.09 0.1,-0.18 0.2,-0.28 -4.1,-3.98 -8.4,-8 -12.8,-12.04 0,0 7.3,1.69 17.3,3.01 1,-5.51 -0.7,-11.37 -5,-15.56 -41.2,-40.38 -249,-164.42 -257.8,-169.66 -2.8,-1.67 -5.9,-2.49 -9,-2.49" /><path
         id="path118"
         style="fill:#dc8c83;fill-opacity:1;fill-rule:nonzero;stroke:none"
         d="m 15966.2,9712.54 c 4.6,4.1 9,8.04 13.1,11.84 2.1,-2.36 3.5,-5.14 4.1,-8.06 -9.8,-1.72 -17.2,-3.78 -17.2,-3.78" /><path
         id="path120"
         style="fill:#da988e;fill-opacity:1;fill-rule:nonzero;stroke:none"
         d="m 15773.1,9559.97 c -5.8,0 -11.5,2.89 -14.8,8.19 -5.3,8.22 -2.8,19.07 5.4,24.23 1.5,0.99 153.5,97.31 190.4,132.81 3.4,3.28 7.7,4.91 12.1,4.91 4.6,0 9.3,-1.8 12.7,-5.37 0.1,-0.12 0.3,-0.24 0.4,-0.36 -4.1,-3.8 -8.5,-7.74 -13.1,-11.84 0,0 7.4,2.06 17.2,3.78 1.3,-5.77 -0.4,-12.05 -4.9,-16.45 -39.5,-37.98 -189.7,-133.13 -196,-137.15 -2.9,-1.85 -6.2,-2.75 -9.4,-2.75" /><path
         id="path122"
         style="fill:#ef4136;fill-opacity:1;fill-rule:nonzero;stroke:none"
         d="m 15916.3,8678.79 c 0,0 -173.1,111.59 -312.6,0 0,0 106.7,227.65 312.6,0" /><path
         id="path124"
         style="fill:#050407;fill-opacity:1;fill-rule:nonzero;stroke:none"
         d="m 15614.1,3036.7 c 23.5,218.4 53.8,442.1 92.1,670.7 1.4,8.7 -4.5,16.9 -13.1,18.3 -9.2,1.9 -16.9,-4.4 -18.4,-13 -38.6,-230.5 -69,-456 -92.7,-676 h 32.1" /><g
         transform="scale(1.18563)"
         id="g126"><path
           id="path128"
           style="fill:#1b75bc;fill-opacity:1;fill-rule:nonzero;stroke:none"
           d="m 11323.2,2875.26 v -594.2 H 16300 v 594.2 h -4976.8" /></g><g
         transform="scale(1.02169)"
         id="g130"><path
           id="path132"
           style="fill:#cca2ba;fill-opacity:1;fill-rule:nonzero;stroke:none"
           d="m 16300,2155.54 c 0,-128.9 -104.4,-233.34 -233.3,-233.34 -128.9,0 -233.4,104.44 -233.4,233.34 0,128.9 104.5,233.34 233.4,233.34 128.9,0 233.3,-104.44 233.3,-233.34" /></g><path
         id="path134"
         style="fill:#1b75bc;fill-opacity:1;fill-rule:nonzero;stroke:none"
         d="m 14661.6,11958.1 c 0,-246.8 -200.2,-447 -447,-447 -246.9,0 -447.1,200.2 -447.1,447 0,246.9 200.2,447.1 447.1,447.1 246.8,0 447,-200.2 447,-447.1" /><path
         id="path136"
         style="fill:#ffffff;fill-opacity:1;fill-rule:nonzero;stroke:none"
         d="m 13966.6,12104.2 v -282.1 h 412.7 v 282.1 h -412.7" /><path
         id="path138"
         style="fill:#ffffff;fill-opacity:1;fill-rule:nonzero;stroke:none"
         d="m 14562.2,12081.3 -221,-83.9 v -91.5 l 221,-61 v 236.4" /><g
         id="g140"><g
           clip-path="url(#clipPath146)"
           id="g142"><g
             transform="scale(1.16613)"
             id="g148"><path
               id="path150"
               style="fill:#d8a3c4;fill-opacity:1;fill-rule:nonzero;stroke:none"
               d="M 16300,8953.52 H 15029.3 V 10654.1 H 16300 V 8953.52" /></g><g
             transform="scale(1.16613)"
             id="g152"><path
               id="path154"
               style="fill:#f3eee4;fill-opacity:1;fill-rule:nonzero;stroke:none"
               d="m 16230.1,9122.82 -267.5,203.64 -42.7,32.52 c -30.7,23.41 -68.2,36.01 -106.9,36.01 h -268.2 c -28.7,0 -56.8,-6.99 -82.2,-20.17 l -6,-3.23 -49.2,-28.03 -389.8,-221.86 c -27.7,-14.54 -45.7,-41.97 -49,-72.38 v -20.16 l 18.6,-131.71 h 1342.3 c 7.8,87.18 -29.8,172.39 -99.4,225.37" /></g><g
             transform="scale(1.15318)"
             id="g156"><path
               id="path158"
               style="fill:#c9c0af;fill-opacity:1;fill-rule:nonzero;stroke:none"
               d="m 16187,9029.58 -10.1,9.85 c 10.4,10.87 20.7,20.74 30.5,30.17 33.5,32.21 59.9,57.64 70.4,99.56 7.3,44.02 -14,75.86 -38.7,112.71 -20.3,30.34 -41.2,61.7 -48.8,104 l 14,2.52 c 7,-39.39 27.2,-69.52 46.6,-98.65 25.3,-37.72 49.1,-73.36 40.8,-123.45 -11.6,-46.43 -40.8,-74.45 -74.5,-106.9 -9.7,-9.31 -19.9,-19.06 -30.2,-29.81" /></g><g
             transform="scale(1.09744)"
             id="g160"><path
               id="path162"
               style="fill:#c9c0af;fill-opacity:1;fill-rule:nonzero;stroke:none"
               d="m 16266.5,9487.46 c -53.4,20.59 -85.4,52.81 -85.4,86.12 -9.7,67.57 24.1,136.07 56.8,202.31 18.3,36.97 37.1,75.21 47.8,112.47 l 14.3,-4.09 c -11,-38.55 -30.3,-77.41 -48.8,-114.98 -31.7,-64.2 -64.4,-130.6 -55.3,-194.65 0.1,-27.57 29.2,-55.26 75.9,-73.3 l -5.3,-13.88" /></g><g
             transform="scale(1.14248)"
             id="g164"><path
               id="path166"
               style="fill:#da1c5c;fill-opacity:1;fill-rule:nonzero;stroke:none"
               d="m 16212.4,9081.64 c 49.4,128.3 87.6,281.04 80.7,437.88 l -43.6,33.2 c -31.3,23.85 -69.7,36.76 -109.2,36.76 h -273.8 c -29.2,0 -58,-7.09 -83.8,-20.66 l -6.1,-3.23 -50.3,-28.61 c 8.7,-88.56 34.3,-265.12 108.6,-455.34 h 377.5" /></g><g
             transform="scale(1.13956)"
             id="g168"><path
               id="path170"
               style="fill:#f4ad8e;fill-opacity:1;fill-rule:nonzero;stroke:none"
               d="m 16300,9488.57 c 0,-184.17 -110.7,-333.47 -247.4,-333.47 -136.7,0 -247.4,149.3 -247.4,333.47 0,35.41 4.2,69.55 11.8,101.53 l 6.1,3.24 c 25.9,13.6 54.8,20.71 84,20.71 h 274.6 c 39.6,0 78,-12.94 109.4,-36.85 5.9,-28.25 8.9,-57.95 8.9,-88.63" /></g><g
             transform="scale(1.11801)"
             id="g172"><path
               id="path174"
               style="fill:#1e192d;fill-opacity:1;fill-rule:nonzero;stroke:none"
               d="m 16300,10709.5 c 0,-159.5 -129.2,-288.8 -288.7,-288.8 -159.4,0 -288.8,129.3 -288.8,288.8 0,159.4 129.4,288.7 288.8,288.7 159.5,0 288.7,-129.3 288.7,-288.7" /></g><g
             transform="scale(1.15903)"
             id="g176"><path
               id="path178"
               style="fill:#1e192d;fill-opacity:1;fill-rule:nonzero;stroke:none"
               d="m 16300,10106.5 c 0,-254.05 -228.3,-460.02 -509.9,-460.02 -281.6,0 -509.9,205.97 -509.9,460.02 0,254.1 239,524.6 520.4,516.5 490.1,-14.1 499.4,-262.4 499.4,-516.5" /></g><g
             transform="scale(1.15965)"
             id="g180"><path
               id="path182"
               style="fill:#f4ad8e;fill-opacity:1;fill-rule:nonzero;stroke:none"
               d="m 16297.7,10024.4 c -2.4,-48.61 -9.3,-97.54 -16,-136.72 -3,-17.45 -6.1,-32.85 -8.7,-45.52 -4.6,-22.24 -6.8,-44.83 -8.4,-67.42 -1.9,-25.49 -7.2,-48.07 -15,-68.44 -71.9,-182.57 -365.2,-164.95 -365.2,-164.95 -293.1,21.39 -365.7,239.56 -365.7,239.56 -113.4,-74.96 -162.5,32.16 -162.5,32.16 -47.2,87.6 25.7,113.28 25.7,113.28 53.4,19.16 111.2,-44.84 111.2,-44.84 19.2,25.68 25.6,74.78 25.6,74.78 30.1,-56.29 18.7,-91.88 17.4,-95.99 32.3,44.49 43.4,121.83 46.3,187.4 2.9,63.6 -1.7,116.1 -1.7,116.1 363.6,19.2 434.3,267.3 434.3,267.3 132.5,-179.6 273.8,-278 273.8,-278 9.6,-36.7 11.2,-82.5 8.9,-128.7" /></g><g
             transform="scale(1.13566)"
             id="g184"><path
               id="path186"
               style="fill:#f4ad8e;fill-opacity:1;fill-rule:nonzero;stroke:none"
               d="m 16300,9745.2 v -185.72 c -160.1,-87.37 -363.9,0 -363.9,0 v 299.13 c 57,-53.47 146.7,-105.71 283.9,-115.67 0,0 33.2,-1.92 80,2.26" /></g><g
             transform="scale(1.13566)"
             id="g188"><path
               id="path190"
               style="fill:#dc9d81;fill-opacity:1;fill-rule:nonzero;stroke:none"
               d="m 16293.7,9668.8 c -67.5,0 -229.1,20.26 -357.6,189.81 57,-53.47 146.7,-105.71 283.9,-115.67 0,0 7.5,-0.44 20.7,-0.44 14.1,0 34.8,0.52 59.3,2.7 v -76.34 c -2,-0.05 -4.1,-0.06 -6.3,-0.06" /></g><g
             transform="scale(1.14633)"
             id="g192"><path
               id="path194"
               style="fill:#ffffff;fill-opacity:1;fill-rule:nonzero;stroke:none"
               d="m 16300,9888.79 h -221 c 0,0 103.4,-167.53 221,0" /></g><g
             transform="scale(1.07691)"
             id="g196"><path
               id="path198"
               style="fill:#f3eee4;fill-opacity:1;fill-rule:nonzero;stroke:none"
               d="m 16208.8,9634.65 h 91.2 l -38.1,242.82 c 0,0 -22.1,-14.52 -53.1,-44.84 v -197.98" /></g><g
             transform="scale(1.16613)"
             id="g200"><path
               id="path202"
               style="fill:#f3eee4;fill-opacity:1;fill-rule:nonzero;stroke:none"
               d="m 16426.7,8897.45 -140.7,154.18 -10.2,-154.18 h 150.9" /></g></g></g><path
         id="path204"
         style="fill:#ffffff;fill-opacity:1;fill-rule:nonzero;stroke:none"
         d="m 13293.8,11179.9 h 1440.4 c 59.1,0 107,-47.9 107,-107 v -608.5 c 0,-11.6 4.7,-22.9 12.9,-31.1 l 210.1,-210.1 h -178.9 c -24.3,0 -44.1,-19.7 -44.1,-44.1 v 0 c 0,-59.1 -47.9,-107 -107,-107 h -1440.4 c -59.1,0 -107,47.9 -107,107 v 893.8 c 0,59.1 47.9,107 107,107" /><path
         id="path206"
         style="fill:#1c2447;fill-opacity:1;fill-rule:nonzero;stroke:none"
         d="m 13991.4,11038.3 c -227.3,0 -412.3,-184.9 -412.3,-412.3 0,-227.3 185,-412.2 412.3,-412.2 227.3,0 412.2,184.9 412.2,412.2 0,227.4 -184.9,412.3 -412.2,412.3 z m 0,-854.3 c -243.8,0 -442.1,198.3 -442.1,442 0,243.8 198.3,442.1 442.1,442.1 243.7,0 442,-198.3 442,-442.1 0,-243.7 -198.3,-442 -442,-442" /><path
         id="path208"
         style="fill:#1c2447;fill-opacity:1;fill-rule:nonzero;stroke:none"
         d="m 13803.9,10656.7 c -3.5,0 -7.1,0.1 -10.6,0.5 -51.8,5.6 -81.4,50.7 -82.6,52.6 l 25,16.2 c 0.2,-0.3 23.4,-35.3 61,-39.2 27.5,-3 56.8,11.2 87.3,41.6 l 21.1,-21 c -33.7,-33.7 -67.7,-50.7 -101.2,-50.7" /><path
         id="path210"
         style="fill:#1c2447;fill-opacity:1;fill-rule:nonzero;stroke:none"
         d="m 13808.2,10399.8 -21.1,21.1 c 81.5,81.5 162.9,118.7 241.7,110 110.4,-11.8 173.6,-108.4 176.3,-112.5 l -25.1,-16.1 c -0.5,0.9 -58.5,88.8 -154.6,99 -69.4,7.5 -142.5,-26.8 -217.2,-101.5" /><path
         id="path212"
         style="fill:#1c2447;fill-opacity:1;fill-rule:nonzero;stroke:none"
         d="m 14183.8,10656.7 c -3.5,0 -7,0.1 -10.5,0.5 -51.9,5.6 -81.5,50.7 -82.7,52.6 l 25,16.2 c 0.3,-0.3 23.5,-35.3 61.1,-39.2 27.5,-3 56.8,11.2 87.3,41.6 l 21,-21 c -33.7,-33.7 -67.7,-50.7 -101.2,-50.7" /><g
         transform="scale(1.03785)"
         id="g214"><path
           id="path216"
           style="fill:#ffffff;fill-opacity:1;fill-rule:nonzero;stroke:none"
           d="m 15926.7,11281.8 373.3,-86.1 -344.6,-545.6 -28.7,631.7" /></g><path
         id="path218"
         style="fill:#ffffff;fill-opacity:1;fill-rule:nonzero;stroke:none"
         d="m 16201.7,11083 -178.8,476.8 -208.6,-208.6 z" /><g
         transform="scale(1.02883)"
         id="g220"><path
           id="path222"
           style="fill:#f3eee4;fill-opacity:1;fill-rule:nonzero;stroke:none"
           d="m 15942.6,2999.14 25.6,28.87 c 7.7,8.75 9.8,20.99 5.5,31.78 l -34,83.88 c 0,0 -12.2,34.41 -66.9,13.81 -54.7,-20.71 -66.4,-101.77 -55.8,-139.39 10.7,-37.61 58,-120.52 132.6,-193.52 66.3,-64.83 141.1,-123.44 258.1,-117.02 3.5,0.19 7,1.06 10.2,2.43 16.9,7.19 69.5,33.24 76,81.06 6.1,45.49 -86.1,66.87 -124.1,73.77 -9.9,1.75 -19.9,-1.46 -27,-8.55 l -25.1,-25.08 c -9.2,-9.14 -23.1,-11.57 -34.7,-6.02 -33,15.74 -99.1,55.69 -144.4,139.08 -6.1,11.28 -4.6,25.28 4,34.9" /></g><path
         id="path224"
         style="fill:#f3eee4;fill-opacity:1;fill-rule:nonzero;stroke:none"
         d="m 14514.9,3115 h 174 l 90.2,96.7 v -384.4 l -88.1,96.6 h -176.1 V 3115" /><path
         id="path226"
         style="fill:#f3eee4;fill-opacity:1;fill-rule:nonzero;stroke:none"
         d="m 14813.3,3116.7 c 0,0 67,-76.3 0,-145.7" /><path
         id="path228"
         style="fill:#f3eee4;fill-opacity:1;fill-rule:nonzero;stroke:none"
         d="m 14850.8,3160.6 c 0,0 107.5,-122.3 0,-233.5" /><g
         transform="scale(1.11506)"
         id="g230"><path
           id="path232"
           style="fill:#f3eee4;fill-opacity:1;fill-rule:nonzero;stroke:none"
           d="m 16280,2657.34 h -128.4 c -11.1,0 -19.9,8.97 -19.9,20 v 232.27 c 0,11.04 8.8,20 19.9,20 h 128.4 c 11,0 20,-8.96 20,-20 v -232.27 c 0,-11.03 -9,-20 -20,-20" /></g><g
         transform="scale(1.11871)"
         id="g234"><path
           id="path236"
           style="fill:#f3eee4;fill-opacity:1;fill-rule:nonzero;stroke:none"
           d="m 16300,2699.71 c 0,-75.71 -61.3,-137.12 -137.1,-137.12 -75.7,0 -137.1,61.41 -137.1,137.12" /></g><g
         transform="scale(1.11021)"
         id="g238"><path
           id="path240"
           style="fill:#f3eee4;fill-opacity:1;fill-rule:nonzero;stroke:none"
           d="m 16300,2496.99 h -26.8 v 85.21 h 26.8 v -85.21" /></g><g
         transform="scale(1.05445)"
         id="g242"><path
           id="path244"
           style="fill:#e1aa9f;fill-opacity:1;fill-rule:nonzero;stroke:none"
           d="m 16156.4,8393.74 c -4.4,0 -8.9,0.53 -12.9,2.39 -6.6,3.05 -11.5,11 -8.8,17.72 3.1,7.42 12.8,8.87 20.9,9.24 10.9,0.5 21.8,1 32.7,1.49 6.8,0.31 14.9,1.34 18.1,7.34 3.8,6.92 -1.5,15.2 -7,20.88 -14.2,14.66 -30.7,23.77 -47.5,34.26 17.4,42.59 47,73.43 88.9,73.43 12.4,0 25.9,-2.71 40.5,-8.64 3.2,-1.33 6.6,-2.91 8.8,-5.67 2,-2.58 2.9,-5.91 3.5,-9.16 6.4,-34.88 -10.6,-69.51 -28.7,-100 -8,-13.5 -17.2,-27.52 -31.4,-34.06 -8.6,-3.95 -18.3,-4.76 -27.8,-5.52 -13.5,-1.09 -27.1,-2.17 -40.7,-3.27 -2.8,-0.22 -5.6,-0.43 -8.6,-0.43" /></g><g
         transform="scale(1.10114)"
         id="g246"><path
           id="path248"
           style="fill:#dc9d81;fill-opacity:1;fill-rule:nonzero;stroke:none"
           d="m 16272.3,10311.2 c -2.3,0 -4.6,0.1 -6.9,0.3 -29.9,2.9 -58,19.4 -75.3,43.9 -8,11.4 -13.8,25.4 -10.6,39 3.3,14.2 16.1,24.8 30,29.2 8.2,2.7 16.9,3.6 25.6,3.6 6,0 12,-0.5 17.9,-1 16.6,-1.4 44.2,-7.6 37.7,-30.4 -6.1,-21.7 -35.7,-8.8 -27.4,-38.3 3.6,-12.9 18.4,-18.8 31.7,-20.9 1.3,-0.3 2.7,-0.5 3.6,-1.4 1.1,-1 1.4,-2.6 1.4,-4.1 -0.2,-7.5 -5.8,-14 -12.6,-17.1 -4.7,-2.1 -9.9,-2.8 -15.1,-2.8" /></g><g
         transform="scale(1.09036)"
         id="g250"><path
           id="path252"
           style="fill:#e0b54b;fill-opacity:1;fill-rule:nonzero;stroke:none"
           d="m 15411.6,6380.32 c 0,0 165.2,32.49 220.2,0 55,-32.49 668.2,-641.86 668.2,-641.86 l -673.1,690.4 -215.3,-48.54" /></g><path
         id="path254"
         style="fill:#99afab;fill-opacity:1;fill-rule:nonzero;stroke:none"
         d="m 15250.9,6876.29 -118.6,156.56 125.3,-111.41 c -2.3,-14.86 -4.6,-29.85 -6.7,-45.14" /><path
         id="path256"
         style="fill:#e3c368;fill-opacity:1;fill-rule:nonzero;stroke:none"
         d="m 15257.6,6921.44 -125.3,111.41 v 0.01 l 140.1,-24.14 c -5.2,-28.23 -10.1,-57.33 -14.8,-87.28" /><path
         id="path258"
         style="fill:#e3c368;fill-opacity:1;fill-rule:nonzero;stroke:none"
         d="m 15220.6,6584.4 30.3,291.89 c 2.1,15.3 4.4,30.29 6.7,45.15 4.7,29.95 9.6,59.05 14.8,87.28 l 77.6,-13.37 c -15.9,-44.18 -29.8,-84.37 -41.3,-118.71 l -0.3,-0.35 c -25,-74.89 -39,-121.59 -39,-121.59 -17.7,-52 -33.9,-109.3 -48.8,-170.3" /><path
         id="path260"
         style="fill:#e3c368;fill-opacity:1;fill-rule:nonzero;stroke:none"
         d="m 15220.5,6583.7 0.1,0.7 c 14.9,61 31.1,118.3 48.8,170.3 0,0 14,46.7 39,121.59 l 0.3,0.35 c 11.5,34.34 25.4,74.53 41.3,118.71 l 95.2,-16.41 -224.7,-395.24" /><g
         transform="scale(1.03958)"
         id="g262"><path
           id="path264"
           style="fill:#ee2a7b;fill-opacity:1;fill-rule:nonzero;stroke:none"
           d="m 15310.4,7637.59 -52.6,-73.9 c 0,0 1042.2,-313.09 1023.9,62.56 l -173.6,103.54 h -704.3 l -93.4,-92.2" /></g><path
         id="path266"
         style="fill:#9676b2;fill-opacity:1;fill-rule:nonzero;stroke:none"
         d="M 11024.4,1437.4 H 4640.62 c -146.35,0 -265,118.6 -265,265 v 11003 c 0,146.3 118.65,265 265,265 h 6383.78 c 146.4,0 265,-118.7 265,-265 v -11003 c 0,-146.4 -118.6,-265 -265,-265" /><path
         id="path268"
         style="fill:#cbb7cb;fill-opacity:1;fill-rule:nonzero;stroke:none"
         d="M 10865.5,1576.5 H 4481.69 c -146.36,0 -265,118.6 -265,265 v 11002.9 c 0,146.4 118.64,265 265,265 h 6383.81 c 146.4,0 265,-118.6 265,-265 V 1841.5 c 0,-146.4 -118.6,-265 -265,-265" /><path
         id="path270"
         style="fill:#f3eee4;fill-opacity:1;fill-rule:nonzero;stroke:none"
         d="M 10346.6,2719.6 H 4722.45 c -76.34,0 -138.22,61.8 -138.22,138.2 v 9566.3 c 0,76.4 61.88,138.3 138.21,138.3 h 5624.16 c 76.3,0 138.2,-61.9 138.2,-138.3 V 2857.8 c 0,-76.4 -61.9,-138.2 -138.2,-138.2" /><path
         id="path272"
         style="fill:#d8a3c4;fill-opacity:1;fill-rule:nonzero;stroke:none"
         d="M 10485.7,2838.8 H 4861.51 c -76.33,0 -138.21,61.8 -138.21,138.2 v 9566.3 c 0,76.4 61.88,138.3 138.21,138.3 h 5624.19 c 76.3,0 138.2,-61.9 138.2,-138.3 V 2977 c 0,-76.4 -61.9,-138.2 -138.2,-138.2" /><path
         id="path274"
         style="fill:#f3eee4;fill-opacity:1;fill-rule:nonzero;stroke:none"
         d="m 9107.02,7298.25 -196.69,-2324.45 51.85,-685.4 71.23,-938.8 25.93,-342.7 H 6317.65 l 47.39,342.7 129.93,938.8 90.89,655.6 -373.41,2640.64 c -6.25,78.67 35.17,153.77 105.2,190.43 l 828.77,471.75 104.6,59.6 12.81,6.85 c 53.94,28.01 113.84,42.91 174.63,42.91 h 570.39 c 82.25,0 162.12,-26.81 227.39,-76.59 l 90.89,-69.13 568.6,-433.01 c 148.11,-112.65 227.98,-293.84 211.29,-479.2" /><path
         id="path276"
         style="fill:#c9c0af;fill-opacity:1;fill-rule:nonzero;stroke:none"
         d="m 7271.28,3334.7 h -906.24 v 29.8 h 876.44 v 909 h -746.51 v 29.8 h 776.31 v -968.6" /><path
         id="path278"
         style="fill:#c9c0af;fill-opacity:1;fill-rule:nonzero;stroke:none"
         d="M 9033.41,3334.7 H 8391.5 v 968.6 h 570.69 v -29.8 h -540.88 v -909 h 612.1 v -29.8" /><path
         id="path280"
         style="fill:#c9c0af;fill-opacity:1;fill-rule:nonzero;stroke:none"
         d="m 7822.6,3021.8 h -29.8 v 3471.8 h 29.8 V 3021.8" /><path
         id="path282"
         style="fill:#c9c0af;fill-opacity:1;fill-rule:nonzero;stroke:none"
         d="m 7982.35,6562.8 -21.51,20.6 684.09,712.99 -295.68,29.57 280.45,332.4 -199.88,453.39 27.27,12.05 207.38,-470.44 -255.97,-303.37 300.34,-30.03 -726.49,-757.16" /><path
         id="path284"
         style="fill:#c9c0af;fill-opacity:1;fill-rule:nonzero;stroke:none"
         d="m 7709.69,6511.3 -886.87,626.88 269.42,104.77 -375.44,288.79 257.56,636.33 27.62,-11.19 -249.06,-615.31 399.39,-307.23 -267,-103.84 841.58,-594.9 -17.2,-24.3" /><path
         id="path286"
         style="fill:#ee2a7b;fill-opacity:1;fill-rule:nonzero;stroke:none"
         d="m 7777.9,6583 c -482.48,600.21 -602.58,1367.89 -631.48,1663.82 l 104.6,59.6 12.78,6.7 c 53.85,28.29 113.76,43.06 174.58,43.06 h 570.59 c 82.09,0 161.92,-26.9 227.27,-76.59 l 90.89,-69.13 C 8364.08,7369.18 7777.9,6583 7777.9,6583" /><path
         id="path288"
         style="fill:#1e192d;fill-opacity:1;fill-rule:nonzero;stroke:none"
         d="m 7146.42,6956.89 -45.47,-22.73 51.02,-125.66 -509.64,-2261.1 1571.78,-354.3 29,-71.4 44.39,22.2 545.65,2418.9 -1686.73,394.09" /><path
         id="path290"
         style="fill:#fbb040;fill-opacity:1;fill-rule:nonzero;stroke:none"
         d="m 8243.11,4121.7 -1690.18,381 548.02,2431.46 1690.18,-380.96 -548.02,-2431.5" /><path
         id="path292"
         style="fill:#f4ad8e;fill-opacity:1;fill-rule:nonzero;stroke:none"
         d="m 8254.71,8095.42 c 0,-382.64 -230.06,-692.87 -514.07,-692.87 -284,0 -514.06,310.23 -514.06,692.87 0,73.61 8.64,144.54 24.44,211 l 12.78,6.7 c 53.85,28.29 113.76,43.06 174.58,43.06 h 570.59 c 82.09,0 161.92,-26.9 227.27,-76.59 12.22,-58.7 18.47,-120.39 18.47,-184.17" /><path
         id="path294"
         style="fill:#1e192d;fill-opacity:1;fill-rule:nonzero;stroke:none"
         d="m 7613.99,10211.3 c 0,-325.07 -263.51,-588.58 -588.57,-588.58 -325.05,0 -588.56,263.51 -588.56,588.58 0,325.1 263.51,588.6 588.56,588.6 325.06,0 588.57,-263.5 588.57,-588.6" /><path
         id="path296"
         style="fill:#1e192d;fill-opacity:1;fill-rule:nonzero;stroke:none"
         d="m 8833.16,9738.2 c 0,-536.97 -482.47,-972.26 -1077.61,-972.26 -595.15,0 -1077.61,435.29 -1077.61,972.26 0,537 505.06,1108.6 1099.96,1091.5 1035.57,-29.8 1055.26,-554.5 1055.26,-1091.5" /><path
         id="path298"
         style="fill:#f4ad8e;fill-opacity:1;fill-rule:nonzero;stroke:none"
         d="m 8846.67,9575.93 c -5.07,-102.75 -19.54,-206.23 -33.65,-289.08 -6.51,-36.91 -13.03,-69.46 -18.46,-96.24 -9.77,-47.03 -14.47,-94.79 -17.73,-142.55 -3.97,-53.91 -15.19,-101.67 -31.83,-144.72 -151.96,-386.06 -772.1,-348.78 -772.1,-348.78 -619.77,45.22 -773.18,506.52 -773.18,506.52 -239.87,-158.47 -343.7,68.03 -343.7,68.03 -99.88,185.24 54.26,239.51 54.26,239.51 112.88,40.53 235.18,-94.8 235.18,-94.8 40.52,54.27 54.26,158.11 54.26,158.11 63.68,-119.02 39.43,-194.28 36.54,-202.97 68.39,94.07 91.9,257.61 98.06,396.18 6.14,134.59 -3.63,245.67 -3.63,245.67 768.85,40.52 918.27,565.09 918.27,565.09 280.03,-379.8 578.9,-587.89 578.9,-587.89 20.25,-77.43 23.87,-174.39 18.81,-272.08" /><path
         id="path300"
         style="fill:#f4ad8e;fill-opacity:1;fill-rule:nonzero;stroke:none"
         d="m 8138.5,8559.26 v -384.6 c -331.42,-180.91 -753.65,0 -753.65,0 v 619.41 c 118.32,-110.71 303.93,-218.89 587.95,-239.51 0,0 68.73,-3.99 165.7,4.7" /><g
         id="g302"><g
           clip-path="url(#clipPath308)"
           id="g304"><path
             id="path310"
             style="fill:#dc9d81;fill-opacity:1;fill-rule:nonzero;stroke:none"
             d="m 7384.85,8401.02 h 753.648 v 393.051 H 7384.85 Z" /></g></g><path
         id="path312"
         style="fill:#ffffff;fill-opacity:1;fill-rule:nonzero;stroke:none"
         d="m 8455.87,9049.05 h -461.91 c 0,0 216.05,-350.16 461.91,0" /><path
         id="path314"
         style="fill:#f3eee4;fill-opacity:1;fill-rule:nonzero;stroke:none"
         d="m 6317.65,7775.07 c 0,0 -566.22,-372.52 -491.71,-1236.77 74.5,-864.2 238.4,-1579.4 238.4,-1579.4 0,0 59.61,-342.7 357.61,-283.1 298.01,59.6 1057.94,432.1 1057.94,432.1 l -59.61,566.2 -745.02,-178.8 -357.61,2279.77" /><path
         id="path316"
         style="fill:#f9724d;fill-opacity:1;fill-rule:nonzero;stroke:none"
         d="m 7293.22,5606.9 c 0,0 194.05,64.1 247.01,187.7 0,0 40.7,170.2 300.19,317.2 0,0 160.71,107.8 411.68,137.7 0,0 -4.36,-58.8 -115.42,-130.4 l -137.44,-109.5 c 0,0 344.55,159.8 558.03,172.9 0,0 54.05,-28.1 -64.24,-102.9 0,0 148.06,58.6 162.12,16.8 0,0 -59.94,-67.6 -151.42,-140.7 0,0 212.39,33.1 -7.21,-135 0,0 234.81,47 -93.46,-169 0,0 -446.06,-321 -930.3,-460.4 0,0 -159.24,48.5 -179.54,415.6" /><path
         id="path318"
         style="fill:#e86546;fill-opacity:1;fill-rule:nonzero;stroke:none"
         d="m 8102.79,5867 c -5.18,2 -9.52,5.8 -12.18,11.1 -5.39,11.1 -0.8,24.5 10.28,30 2.87,1.4 285.18,139.3 381.58,191.2 10.93,5.8 24.64,1.6 30.32,-9.1 5.83,-10.9 1.79,-24.5 -9.08,-30.4 -97.17,-52.3 -380.24,-190.6 -383.1,-192 -5.76,-2.8 -12.22,-2.9 -17.82,-0.8" /><path
         id="path320"
         style="fill:#e86546;fill-opacity:1;fill-rule:nonzero;stroke:none"
         d="m 8156.72,5746.1 c -5.06,1.9 -9.43,5.7 -12.12,10.9 -5.53,11.1 -1.05,24.5 10.06,30.1 78.39,39.2 291.27,149.2 334.62,185.7 9.55,8 23.53,6.8 31.64,-2.7 7.87,-9.4 6.7,-23.5 -2.75,-31.5 -56.34,-47.4 -331.75,-185.7 -343.47,-191.6 -5.78,-2.9 -12.38,-3 -17.98,-0.9" /><path
         id="path322"
         style="fill:#e86546;fill-opacity:1;fill-rule:nonzero;stroke:none"
         d="m 8230.58,5646.2 c -4.86,1.8 -9.16,5.4 -11.83,10.4 -5.84,10.9 -1.7,24.4 9.16,30.3 2.15,1.1 204.12,109.3 254.36,151 9.55,7.9 23.53,6.7 31.54,-3 7.88,-9.4 6.57,-23.6 -2.96,-31.5 -53.68,-44.6 -253.32,-151.5 -261.7,-156 -6.03,-3.2 -12.76,-3.4 -18.57,-1.2" /><path
         id="path324"
         style="fill:#f3eee4;fill-opacity:1;fill-rule:nonzero;stroke:none"
         d="M 9014.63,7626.05 10002.5,6543 c 160.1,-175.5 380.1,-284.7 616.8,-305.9 l 852.7,-76.7 c 61.7,-5.5 111.4,-53.1 119.7,-114.5 l 38.7,-286 c 11.5,-85.3 -54,-161.6 -140.1,-163.1 L 10222.7,5575 c -194.4,-3.4 -384.88,54.9 -544.04,166.6 l -753.43,528.5 89.4,1355.95" /><path
         id="path326"
         style="fill:#c9c0af;fill-opacity:1;fill-rule:nonzero;stroke:none"
         d="m 6715.01,5529.5 -39.73,1082.8 29.77,1.1 39.74,-1082.8 -29.78,-1.1" /><path
         id="path328"
         style="fill:#c9c0af;fill-opacity:1;fill-rule:nonzero;stroke:none"
         d="m 9021.88,6200.6 -29.39,4.9 c 0.94,5.8 93.55,585.1 -93.99,830.39 l 23.66,18.1 C 9117.54,6798.5 9025.88,6225 9021.88,6200.6" /><path
         id="path330"
         style="fill:#1b75bc;fill-opacity:1;fill-rule:nonzero;stroke:none"
         d="m 4710.22,3409.1 v -704.6 h 5900.58 v 704.6 H 4710.22" /><path
         id="path332"
         style="fill:#c5b6d1;fill-opacity:1;fill-rule:nonzero;stroke:none"
         d="m 7951.74,2202.3 c 0,-131.7 -106.74,-238.4 -238.41,-238.4 -131.67,0 -238.41,106.7 -238.41,238.4 0,131.7 106.74,238.4 238.41,238.4 131.67,0 238.41,-106.7 238.41,-238.4" /><path
         id="path334"
         style="fill:#27aae1;fill-opacity:1;fill-rule:nonzero;stroke:none"
         d="m 5959.7,11958.1 c 0,-246.8 -200.14,-447 -447.02,-447 -246.88,0 -447.01,200.2 -447.01,447 0,246.9 200.13,447.1 447.01,447.1 246.88,0 447.02,-200.2 447.02,-447.1" /><path
         id="path336"
         style="fill:#ffffff;fill-opacity:1;fill-rule:nonzero;stroke:none"
         d="m 5264.69,12104.2 v -282.1 h 412.71 v 282.1 h -412.71" /><path
         id="path338"
         style="fill:#ffffff;fill-opacity:1;fill-rule:nonzero;stroke:none"
         d="m 5860.36,12081.3 -221.08,-83.9 v -91.5 l 221.08,-61 v 236.4" /><path
         id="path340"
         style="fill:#f9bcaf;fill-opacity:1;fill-rule:nonzero;stroke:none"
         d="m 8889.81,10412.7 h 1481.89 v 1983.05 H 8889.81 Z" /><g
         id="g342"><g
           clip-path="url(#clipPath348)"
           id="g344"><path
             id="path350"
             style="fill:#6dcfbd;fill-opacity:1;fill-rule:nonzero;stroke:none"
             d="m 8889.81,10412.7 h 1481.89 v 1983.05 H 8889.81 Z" /><path
             id="path352"
             style="fill:#603913;fill-opacity:1;fill-rule:nonzero;stroke:none"
             d="m 10567.8,11419.5 c -97,81.4 -198.1,190.9 -240.1,318 0,0 -202.5,604.5 -771.21,551.5 0,0 -414.49,4.8 -477.15,-513.3 0,0 -36.06,-682 206.09,-951.9 0,0 180.84,-248.1 459.62,-476.4 h 822.75 v 1072.1" /><path
             id="path354"
             style="fill:#fcd772;fill-opacity:1;fill-rule:nonzero;stroke:none"
             d="m 9452.66,10853.2 h -0.19 l -521.11,344.6 -133.79,77.6 190.66,123.6 c 0,0 144.79,13.5 116.06,128.8 l 57.26,37 c 0,0 24.68,19.9 -20.63,101.6 0,0 -37.01,83.3 -99.86,84.5 0,0 -20.24,6 -73.07,-24.3 0,0 -77.7,72.1 -142.47,7.1 0,0 -26.37,-35.6 -71.9,-66 v -1004.1 l 355.71,-316.2 h 87.4 c 103.9,78.8 345.89,274.2 401.49,423.3 -150.95,23.4 -145.56,82.5 -145.56,82.5" /><path
             id="path356"
             style="fill:#fcd772;fill-opacity:1;fill-rule:nonzero;stroke:none"
             d="m 9329.94,10347.4 c 104.89,255.1 205.73,548.7 205.73,548.7 0,0 -314.46,58.3 -412.76,-548.7 h 207.03" /><path
             id="path358"
             style="fill:#f9bcaf;fill-opacity:1;fill-rule:nonzero;stroke:none"
             d="m 9134.95,11483.1 c 7.13,-59.9 24.48,-122.8 58.02,-182.5 16.2,-28.8 36.06,-56.7 60.54,-83.3 120.69,-131.1 370.55,-118.8 370.55,-118.8 330.25,24.1 411.94,269.9 411.94,269.9 127.9,-84.4 183.2,36.3 183.2,36.3 53.2,98.7 -28.9,127.6 -28.9,127.6 -60.2,21.6 -125.3,-50.5 -125.3,-50.5 -21.6,28.9 -29,84.2 -29,84.2 -33.9,-63.4 -21,-103.5 -19.4,-108.1 -39.92,54.9 -51.11,154.2 -53.04,231.7 -1.54,62.3 2.7,110.3 2.7,110.3 -409.68,21.6 -489.31,301.1 -489.31,301.1 -149.21,-202.4 -308.47,-313.3 -308.47,-313.3 0,0 -9.83,-26.2 -19.46,-68.8 -12.92,-56.7 -25.44,-142.8 -14.07,-235.8" /><path
             id="path360"
             style="fill:#f49a90;fill-opacity:1;fill-rule:nonzero;stroke:none"
             d="m 9149.02,11717.5 c 34.7,-10.2 71.14,-8.6 103.14,10.3 16.19,9.6 30.66,23.1 48.97,27.7 58.61,14.9 102.19,-66.1 162.52,-68 58.03,-2 97.94,68.4 155.78,69.6 77.89,1.5 113.17,-117.2 190.86,-121.5 21.4,-1.2 42.03,7.1 61.88,15.2 30.47,12.6 60.93,24.9 91.39,37.4 -1.54,62.3 2.7,110.3 2.7,110.3 -409.68,21.6 -489.31,301.2 -489.31,301.2 -149.21,-202.5 -308.46,-313.3 -308.46,-313.3 0,0 -9.83,-26.2 -19.47,-68.9" /><path
             id="path362"
             style="fill:#f9724d;fill-opacity:1;fill-rule:nonzero;stroke:none"
             d="m 9535.67,11101 v -204.9 c 176.6,-96.4 401.59,0 401.59,0 v 330 c -63.05,-59 -161.95,-116.6 -313.29,-127.6 0,0 -36.63,-2.1 -88.3,2.5" /><path
             id="path364"
             style="fill:#1e192d;fill-opacity:1;fill-rule:nonzero;stroke:none"
             d="m 9535.67,11101 v -84.2 c 69.79,-1.4 255.06,16.2 401.59,209.3 -63.05,-59 -161.95,-116.6 -313.29,-127.6 0,0 -36.63,-2.1 -88.3,2.5" /><path
             id="path366"
             style="fill:#fcd772;fill-opacity:1;fill-rule:nonzero;stroke:none"
             d="m 10567.8,10412.6 c -80,145 -148.5,256.9 -148.5,256.9 -55.5,96.4 -151.1,151.4 -233.1,182 -81.9,30.7 -150,37.4 -150,37.4 -10,-65.1 -31.4,-79.6 -31.4,-79.6 -64.18,-38.6 -163.85,-44.9 -163.85,-44.9 -108.35,-6.2 -186.43,-2.3 -242.73,6.3 -150.95,23.4 -145.56,82.5 -145.56,82.5 h -0.19 c -123.25,-65.6 -237.04,-350.4 -291.25,-505.8 h 1406.58 v 65.2" /><path
             id="path368"
             style="fill:#1e192d;fill-opacity:1;fill-rule:nonzero;stroke:none"
             d="m 9873.48,10347.4 c 25.18,24.6 57,42.6 95.18,38.2 l 47.04,-38.2 h 30.5 l -69.65,56.6 -2.63,0.4 c -54.46,7.9 -96.93,-21.4 -127.57,-57 h 27.13" /><path
             id="path370"
             style="fill:#ffffff;fill-opacity:1;fill-rule:nonzero;stroke:none"
             d="m 9389.25,11877.7 c 0,-12.6 8.85,-22.8 19.76,-22.8 10.91,0 19.76,10.2 19.76,22.8 0,12.6 -19.76,45.7 -19.76,45.7 0,0 -19.76,-33.1 -19.76,-45.7" /><path
             id="path372"
             style="fill:#000000;fill-opacity:1;fill-rule:nonzero;stroke:none"
             d="m 9328.13,11856.5 c -6.5,-10.6 -13.72,-21.8 -21.36,-31.2 -7.77,-9.6 -15.99,-18.1 -24.95,-25.4 -9,-7.2 -18.23,-13.8 -28.55,-18.8 -10.54,-4.8 -20.13,-8.9 -29.15,-26.9 l -0.66,-1.3 c -3.14,-6.3 -0.89,-13.9 4.91,-17.5 17.61,-11 34.6,-7 48.22,1.6 14.38,7.4 27.27,17.9 37.93,30 10.76,12 19.23,25.8 24.68,40.4 5.65,14.7 8.67,29.5 7.93,45.9 -0.23,5.4 -4.81,9.6 -10.21,9.3 -3.36,-0.1 -6.24,-2 -7.89,-4.6 l -0.9,-1.5" /><path
             id="path374"
             style="fill:#f9bcaf;fill-opacity:1;fill-rule:nonzero;stroke:none"
             d="m 9688.84,10347.4 h 276.31 c 1.41,3 2.83,5.7 4.24,8.9 0,0 -68.28,55.4 -70.69,113.2 0,0 9.64,74.7 -72.3,173.5 0,0 -48.19,67.9 -144.59,118.3 0,0 -7.23,-24.3 26.51,-70.1 l 38.56,-65 c 0,0 -114.2,116.9 -198.09,154.8 0,0 -26.04,-3 10.12,-51.2 0,0 -50.61,46.2 -62.66,31.5 0,0 13.78,-36.3 39.42,-79.7 0,0 -80.39,45.8 -17.74,-55.4 0,0 -87.29,54.8 11.79,-82.3 0,0 62.77,-94.9 159.12,-196.5" /><path
             id="path376"
             style="fill:#e86546;fill-opacity:1;fill-rule:nonzero;stroke:none"
             d="m 9683.42,10584.6 c 2.39,0 4.71,0.9 6.6,2.6 3.87,3.7 4.07,9.8 0.45,13.7 -0.94,1 -93.45,99.6 -124.3,135.2 -3.52,4 -9.67,4.4 -13.59,1 -4.02,-3.5 -4.46,-9.6 -0.99,-13.6 31.1,-35.9 123.85,-134.8 124.79,-135.8 1.88,-2 4.46,-3.1 7.04,-3.1" /><path
             id="path378"
             style="fill:#e86546;fill-opacity:1;fill-rule:nonzero;stroke:none"
             d="m 9643.25,10544.2 c 2.33,0 4.67,0.9 6.54,2.6 3.92,3.6 4.17,9.7 0.55,13.6 -25.54,27.8 -94.39,104.5 -106.24,125.9 -2.63,4.6 -8.43,6.3 -13.14,3.7 -4.62,-2.6 -6.3,-8.4 -3.72,-13.1 15.42,-27.7 105.09,-125.4 108.91,-129.5 1.89,-2.1 4.52,-3.2 7.1,-3.2" /><path
             id="path380"
             style="fill:#e86546;fill-opacity:1;fill-rule:nonzero;stroke:none"
             d="m 9598.26,10515.3 c 2.24,0 4.52,0.8 6.35,2.4 4.02,3.5 4.42,9.6 0.95,13.6 -0.7,0.8 -65.43,75.2 -79.27,99.6 -2.62,4.7 -8.43,6.3 -13.14,3.7 -4.61,-2.7 -6.25,-8.6 -3.62,-13.2 14.78,-26.1 78.76,-99.7 81.44,-102.8 1.94,-2.2 4.62,-3.3 7.29,-3.3" /><path
             id="path382"
             style="fill:#f2a89c;fill-opacity:1;fill-rule:nonzero;stroke:none"
             d="m 9000.05,11738 c 0,0 81.27,33.6 100.12,88.3 0,0 12.11,74.4 118.87,145.6 0,0 65.6,51.3 172.38,72 0,0 -0.03,-25.3 -45.44,-59.5 l -55.56,-51.4 c 0,0 142.87,79.4 234.09,91.8 0,0 24.08,-10.4 -24.33,-46.2 0,0 61.7,29.8 69.06,12.3 0,0 -23.61,-30.9 -60.57,-65.1 0,0 90.12,20.9 1.14,-58.2 0,0 99.32,27.5 -34.8,-75.5 0,0 -181.37,-151.8 -384.83,-226.9 0,0 -69.88,15.9 -90.13,172.8" /><path
             id="path384"
             style="fill:#e86546;fill-opacity:1;fill-rule:nonzero;stroke:none"
             d="m 9342.14,11874.7 c 1.63,0 3.32,0.4 4.86,1.3 1.19,0.7 118.34,69 158.32,94.4 4.51,2.9 5.85,8.9 2.97,13.4 -2.87,4.4 -8.88,5.8 -13.29,2.9 -39.73,-25.3 -156.53,-93.4 -157.72,-94 -4.62,-2.7 -6.15,-8.6 -3.48,-13.2 1.79,-3.1 5.01,-4.8 8.34,-4.8" /><path
             id="path386"
             style="fill:#e86546;fill-opacity:1;fill-rule:nonzero;stroke:none"
             d="m 9369.07,11824.5 c 1.68,0 3.37,0.4 4.96,1.3 4.81,2.9 118.74,70.9 141.35,93.1 3.82,3.7 3.87,9.8 0.15,13.6 -3.66,3.9 -9.77,3.9 -13.64,0.2 -17.4,-17.1 -105.34,-71 -137.78,-90.3 -4.56,-2.7 -6.05,-8.7 -3.32,-13.2 1.78,-3 5.01,-4.7 8.28,-4.7" /><path
             id="path388"
             style="fill:#e86546;fill-opacity:1;fill-rule:nonzero;stroke:none"
             d="m 9403.89,11783.9 c 1.78,0 3.57,0.5 5.16,1.5 3.46,2.2 85.85,54.4 107.48,75.2 3.82,3.7 3.91,9.8 0.24,13.7 -3.72,3.8 -9.82,3.9 -13.64,0.2 -20.23,-19.5 -103.56,-72.3 -104.4,-72.8 -4.51,-2.9 -5.85,-8.8 -2.98,-13.3 1.84,-2.9 4.96,-4.5 8.14,-4.5" /><path
             id="path390"
             style="fill:#be1e2d;fill-opacity:1;fill-rule:nonzero;stroke:none"
             d="m 9482.41,11300.6 c 0,0 -94.94,61.2 -171.45,0 0,0 58.52,124.9 171.45,0" /></g></g><path
         id="path392"
         style="fill:#f3eee4;fill-opacity:1;fill-rule:nonzero;stroke:none"
         d="m 4912.04,10020.1 c 0,367.5 297.98,665.5 665.55,665.5 367.58,0 665.56,-298 665.56,-665.5 0,-367.61 -297.98,-665.59 -665.56,-665.59 -367.57,0 -665.55,297.98 -665.55,665.59" /><path
         id="path394"
         style="fill:#f3eee4;fill-opacity:1;fill-rule:nonzero;stroke:none"
         d="m 4912.04,8510.16 c 0,367.57 297.98,665.55 665.55,665.55 367.58,0 665.56,-297.98 665.56,-665.55 0,-367.58 -297.98,-665.56 -665.56,-665.56 -367.57,0 -665.55,297.98 -665.55,665.56" /><path
         id="path396"
         style="fill:#be1e2d;fill-opacity:1;fill-rule:nonzero;stroke:none"
         d="m 5301.72,10338.9 c -33.74,0 -67.14,-9 -97.27,-26.5 -44.95,-26.1 -76.99,-67.9 -90.23,-117.7 -13.26,-49.8 -6.2,-102.1 19.88,-147 26.07,-45 67.89,-77 117.73,-90.24 l 567.64,-150.87 c 103.26,-27.44 209.79,34.25 237.25,137.63 13.24,49.82 6.18,102.08 -19.89,146.98 -26.08,45 -67.88,77 -117.72,90.2 l -567.66,150.9 c -16.43,4.4 -33.12,6.6 -49.73,6.6 z m 567.52,-568.66 c -18.98,0 -38.24,2.45 -57.42,7.54 l -567.65,150.87 c -57.53,15.31 -105.78,52.26 -135.84,104.05 -30.08,51.9 -38.21,112.1 -22.92,169.7 15.29,57.5 52.25,105.7 104.1,135.8 51.83,30.1 112.04,38.2 169.59,22.9 l 567.66,-150.9 c 57.54,-15.2 105.77,-52.2 135.84,-104 30.08,-51.9 38.21,-112.1 22.93,-169.64 -26.6,-100.05 -117.34,-166.32 -216.29,-166.32" /><path
         id="path398"
         style="fill:#be1e2d;fill-opacity:1;fill-rule:nonzero;stroke:none"
         d="m 5539.09,9862.32 -28.82,7.63 107.27,403.65 28.82,-7.6 -107.27,-403.68" /><path
         id="path400"
         style="fill:#be1e2d;fill-opacity:1;fill-rule:nonzero;stroke:none"
         d="m 5426.31,8767.51 c -22.13,0 -44.13,-4.33 -64.7,-12.8 -56.49,-22.7 -96.9,-74.36 -105.55,-134.83 -7.12,-49.71 7.89,-100.03 41.21,-138.01 l 258.65,-296.78 331.7,212.19 c 4.94,3.14 9.59,6.57 14.2,10.06 l 1.15,0.99 c 3.48,2.77 5.27,4.14 6.87,5.8 l 2.63,2.47 c 1.43,1.34 2.85,2.65 4.2,4.07 l 4.66,4.98 c 1.03,1.22 2.13,2.38 3.19,3.52 2.66,2.88 3.8,4.1 4.95,5.53 1.26,1.57 2.45,3.23 3.64,4.83 l 16.74,27.1 c 1.25,2.61 2.75,5.85 4.08,9.07 l 6.88,19.3 c 2.17,7.74 4,15.28 5.14,23.22 1.08,7.57 1.67,15.25 1.7,22.65 0.96,85.91 -62.4,159.77 -147.36,171.93 -87.75,12.58 -172.45,-44.88 -192.53,-130.75 l -29.38,4.21 c 4.85,88.1 -60.11,166.94 -147.88,179.51 -8.03,1.16 -16.12,1.74 -24.19,1.74 z m 124.02,-621.36 -275.51,316.11 c -39.01,44.5 -56.62,103.52 -48.27,161.87 10.16,70.95 57.62,131.57 123.82,158.17 32.87,13.56 68.94,18.01 104.36,12.98 81.98,-11.76 147,-72.84 167.18,-149.47 40.9,67.87 120.41,108.35 202.6,96.5 99.72,-14.26 174.06,-100.95 172.94,-201.68 -0.03,-8.61 -0.71,-17.64 -1.99,-26.63 -1.34,-9.37 -3.5,-18.3 -6.06,-27.06 l -7.78,-22.23 c -1.63,-4.05 -3.39,-7.86 -5.16,-11.5 l -17.6,-28.93 c -3.11,-4.28 -4.64,-6.37 -6.23,-8.32 -1.59,-1.95 -3.12,-3.7 -4.92,-5.62 l -9.57,-10.36 c -1.63,-1.72 -3.48,-3.44 -5.37,-5.2 -4.09,-4.03 -6.81,-6.24 -9.64,-8.48 l -2.44,-2.06 c -5.57,-4.19 -11.17,-8.36 -17.07,-12.11 l -353.29,-225.98" /><path
         id="path402"
         style="fill:#f3eee4;fill-opacity:1;fill-rule:nonzero;stroke:none"
         d="m 7700.34,3105.6 26.32,29.7 c 7.93,9 10.1,21.6 5.62,32.7 l -34.99,86.3 c 0,0 -12.5,35.4 -68.77,14.2 -56.28,-21.3 -68.32,-104.7 -57.35,-143.4 10.97,-38.7 59.65,-124 136.38,-199.1 68.15,-66.7 145.17,-127 265.51,-120.4 3.61,0.2 7.14,1.1 10.46,2.5 17.41,7.4 71.54,34.2 78.17,83.4 6.31,46.8 -88.57,68.8 -127.62,75.9 -10.11,1.8 -20.47,-1.5 -27.74,-8.8 l -25.85,-25.8 c -9.41,-9.4 -23.71,-11.9 -35.72,-6.2 -33.92,16.2 -101.88,57.3 -148.53,143.1 -6.32,11.6 -4.69,26 4.11,35.9" /><path
         id="path404"
         style="fill:#f3eee4;fill-opacity:1;fill-rule:nonzero;stroke:none"
         d="m 5813.06,3135 h 173.95 l 90.2,96.7 v -384.4 l -88.05,96.6 h -176.1 V 3135" /><path
         id="path406"
         style="fill:#f3eee4;fill-opacity:1;fill-rule:nonzero;stroke:none"
         d="m 6111.39,3136.7 c 0,0 67.06,-76.3 0,-145.7" /><path
         id="path408"
         style="fill:#f3eee4;fill-opacity:1;fill-rule:nonzero;stroke:none"
         d="m 6148.94,3180.6 c 0,0 107.52,-122.3 0,-233.5" /><path
         id="path410"
         style="fill:#f3eee4;fill-opacity:1;fill-rule:nonzero;stroke:none"
         d="m 9451.33,2983.1 h -143.17 c -12.29,0 -22.25,10 -22.25,22.3 v 259 c 0,12.3 9.96,22.3 22.25,22.3 h 143.17 c 12.3,0 22.26,-10 22.26,-22.3 v -259 c 0,-12.3 -9.96,-22.3 -22.26,-22.3" /><path
         id="path412"
         style="fill:#f3eee4;fill-opacity:1;fill-rule:nonzero;stroke:none"
         d="m 9533.17,3040.2 c 0,-84.7 -68.69,-153.4 -153.42,-153.4 -84.74,0 -153.43,68.7 -153.43,153.4" /><path
         id="path414"
         style="fill:#f3eee4;fill-opacity:1;fill-rule:nonzero;stroke:none"
         d="m 9394.65,2792.2 h -29.8 v 94.6 h 29.8 v -94.6" /><path
         id="path416"
         style="fill:#ffffff;fill-opacity:1;fill-rule:nonzero;stroke:none"
         d="M 11698,9980.33 H 9708.75 c -81.61,0 -147.76,-66.16 -147.76,-147.76 V 8992.3 c 0,-16.13 -6.41,-31.61 -17.83,-43.02 l -290.12,-290.12 h 247.1 c 33.61,0 60.85,-27.24 60.85,-60.84 0,-81.61 66.15,-147.77 147.76,-147.77 H 11698 c 81.6,0 147.7,66.15 147.7,147.76 v 1234.26 c 0,81.61 -66.1,147.76 -147.7,147.76" /><path
         id="path418"
         style="fill:#f4ad8e;fill-opacity:1;fill-rule:nonzero;stroke:none"
         d="m 11472,6160.4 c 0,0 738,214.3 703.7,89.1 -34.3,-125.2 -255.7,-265.8 -255.7,-265.8 0,0 838.6,533.6 855.7,337.1 17.2,-196.5 -368.1,-761.4 -1144,-676.1 l -159.7,515.7" /><path
         id="path420"
         style="fill:#e1aa9f;fill-opacity:1;fill-rule:nonzero;stroke:none"
         d="m 10078.9,11386.5 c -2,0 -4,0.2 -6,0.8 -6.3,1.8 -11.6,8.7 -9.3,14.9 1,2.8 3.5,5 6,6.6 4.6,3.1 10,4.9 15.6,5.4 1.2,0.2 2.5,0.2 3.8,0.2 2.3,0 4.7,-0.2 7,-0.3 2.4,-0.2 4.8,-0.3 7.1,-0.3 1.5,0 2.9,0 4.4,0.2 7.4,0.8 15.3,5.4 16.1,12.8 0.6,5.5 -2.9,10.4 -6.5,14.5 -3.6,4.1 -7.7,8.2 -8.9,13.5 -3.5,14.7 32.9,26.1 43.5,27.9 1.8,0.3 3.8,0.5 5.7,0.5 3.5,0 7,-0.7 9.6,-3.1 2.3,-2 3.5,-4.9 4.9,-7.6 6,-11 17.5,-20 17.9,-32.6 0.3,-8.3 -4.7,-16.1 -11.1,-21.6 -10.7,-9.2 -25,-13.1 -38.7,-16.8 -15.9,-4.2 -31.8,-8.5 -47.7,-12.7 -4.3,-1.2 -8.9,-2.3 -13.4,-2.3" /><path
         id="path422"
         style="fill:#ee2a7b;fill-opacity:1;fill-rule:nonzero;stroke:none"
         d="m 9470.7,10847 -32.01,-44.7 c 0,0 608.71,-140.3 597.51,86.6 l -79.15,13.8 h -429.4 l -56.95,-55.7" /><path
         id="path424"
         style="fill:#dc9d81;fill-opacity:1;fill-rule:nonzero;stroke:none"
         d="m 7073.35,9092 c -3.94,0 -7.84,0.17 -11.58,0.43 -24.39,1.68 -48.9,3.38 -72.69,8.99 -32.37,7.65 -63,22.59 -88.94,43.41 -9.05,7.26 -17.8,15.58 -22.17,26.33 -3.93,9.68 -3.97,20.42 -3.95,30.87 0.04,19.7 0.07,39.4 0.11,59.11 0.01,6.57 0.08,13.4 2.92,19.33 4.89,10.21 16.54,15.08 27.41,18.17 21.75,6.18 42.19,9.96 59.93,9.96 38.95,0 64.85,-18.25 62.9,-69.43 -1.15,-30.29 -10.87,-59.21 16.76,-76.84 16.54,-10.56 100.63,3.62 73.94,-51.16 -7.58,-15.53 -26.49,-19.17 -44.64,-19.17" /></g></g></svg>